# Blender v2.93.6 OBJ File: ''
# www.blender.org
mtllib Hollowcylinder.mtl
o Cylinder
v 0.000000 -1.000000 -1.000000
v 0.000000 1.000000 -1.000000
v 0.195090 -1.000000 -0.980785
v 0.195090 1.000000 -0.980785
v 0.382683 -1.000000 -0.923880
v 0.382683 1.000000 -0.923880
v 0.555570 -1.000000 -0.831470
v 0.555570 1.000000 -0.831470
v 0.707107 -1.000000 -0.707107
v 0.707107 1.000000 -0.707107
v 0.831470 -1.000000 -0.555570
v 0.831470 1.000000 -0.555570
v 0.923880 -1.000000 -0.382683
v 0.923880 1.000000 -0.382683
v 0.980785 -1.000000 -0.195090
v 0.980785 1.000000 -0.195090
v 1.000000 -1.000000 0.000000
v 1.000000 1.000000 0.000000
v 0.980785 -1.000000 0.195090
v 0.980785 1.000000 0.195090
v 0.923880 -1.000000 0.382683
v 0.923880 1.000000 0.382683
v 0.831470 -1.000000 0.555570
v 0.831470 1.000000 0.555570
v 0.707107 -1.000000 0.707107
v 0.707107 1.000000 0.707107
v 0.555570 -1.000000 0.831470
v 0.555570 1.000000 0.831470
v 0.382683 -1.000000 0.923880
v 0.382683 1.000000 0.923880
v 0.195090 -1.000000 0.980785
v 0.195090 1.000000 0.980785
v -0.000000 -1.000000 1.000000
v -0.000000 1.000000 1.000000
v -0.195090 -1.000000 0.980785
v -0.195090 1.000000 0.980785
v -0.382683 -1.000000 0.923880
v -0.382683 1.000000 0.923880
v -0.555570 -1.000000 0.831470
v -0.555570 1.000000 0.831470
v -0.707107 -1.000000 0.707107
v -0.707107 1.000000 0.707107
v -0.831469 -1.000000 0.555570
v -0.831469 1.000000 0.555570
v -0.923880 -1.000000 0.382684
v -0.923880 1.000000 0.382684
v -0.980785 -1.000000 0.195090
v -0.980785 1.000000 0.195090
v -1.000000 -1.000000 -0.000000
v -1.000000 1.000000 -0.000000
v -0.980785 -1.000000 -0.195090
v -0.980785 1.000000 -0.195090
v -0.923879 -1.000000 -0.382684
v -0.923879 1.000000 -0.382684
v -0.831470 -1.000000 -0.555570
v -0.831470 1.000000 -0.555570
v -0.707107 -1.000000 -0.707107
v -0.707107 1.000000 -0.707107
v -0.555570 -1.000000 -0.831470
v -0.555570 1.000000 -0.831470
v -0.382683 -1.000000 -0.923880
v -0.382683 1.000000 -0.923880
v -0.195090 -1.000000 -0.980785
v -0.195090 1.000000 -0.980785
v 0.000000 -1.000000 -1.000000
v 0.195090 -1.000000 -0.980785
v 0.382683 -1.000000 -0.923880
v 0.555570 -1.000000 -0.831470
v 0.707107 -1.000000 -0.707107
v 0.831470 -1.000000 -0.555570
v 0.923880 -1.000000 -0.382683
v 0.980785 -1.000000 -0.195090
v 1.000000 -1.000000 0.000000
v 0.980785 -1.000000 0.195090
v 0.923880 -1.000000 0.382683
v 0.831470 -1.000000 0.555570
v 0.707107 -1.000000 0.707107
v 0.555570 -1.000000 0.831470
v 0.382683 -1.000000 0.923880
v 0.195090 -1.000000 0.980785
v -0.000000 -1.000000 1.000000
v -0.195090 -1.000000 0.980785
v -0.382683 -1.000000 0.923880
v -0.555570 -1.000000 0.831470
v -0.707107 -1.000000 0.707107
v -0.831469 -1.000000 0.555570
v -0.923880 -1.000000 0.382684
v -0.980785 -1.000000 0.195090
v -1.000000 -1.000000 -0.000000
v -0.980785 -1.000000 -0.195090
v -0.923879 -1.000000 -0.382684
v -0.831470 -1.000000 -0.555570
v -0.707107 -1.000000 -0.707107
v -0.555570 -1.000000 -0.831470
v -0.382683 -1.000000 -0.923880
v -0.195090 -1.000000 -0.980785
v 0.000000 -1.127583 -0.873033
v 0.000000 1.000000 -0.820000
v 0.170321 -1.127583 -0.856257
v 0.159977 1.000000 -0.804246
v 0.334095 -1.127583 -0.806575
v 0.313803 1.000000 -0.757585
v 0.485030 -1.127583 -0.725899
v 0.455570 1.000000 -0.681809
v 0.617329 -1.127583 -0.617329
v 0.579832 1.000000 -0.579832
v 0.725899 -1.127583 -0.485030
v 0.681809 1.000000 -0.455570
v 0.806575 -1.127583 -0.334095
v 0.757585 1.000000 -0.313803
v 0.856257 -1.127583 -0.170321
v 0.804246 1.000000 -0.159977
v 0.873033 -1.127583 0.000000
v 0.820000 1.000000 0.000000
v 0.856257 -1.127583 0.170321
v 0.804246 1.000000 0.159977
v 0.806575 -1.127583 0.334095
v 0.757585 1.000000 0.313803
v 0.725899 -1.127583 0.485030
v 0.681809 1.000000 0.455570
v 0.617329 -1.127583 0.617329
v 0.579832 1.000000 0.579832
v 0.485030 -1.127583 0.725899
v 0.455570 1.000000 0.681809
v 0.334095 -1.127583 0.806575
v 0.313803 1.000000 0.757585
v 0.170321 -1.127583 0.856257
v 0.159977 1.000000 0.804246
v -0.000000 -1.127583 0.873033
v -0.000000 1.000000 0.820000
v -0.170321 -1.127583 0.856257
v -0.159977 1.000000 0.804246
v -0.334095 -1.127583 0.806575
v -0.313803 1.000000 0.757585
v -0.485030 -1.127583 0.725899
v -0.455570 1.000000 0.681809
v -0.617329 -1.127583 0.617329
v -0.579832 1.000000 0.579832
v -0.725899 -1.127583 0.485031
v -0.681809 1.000000 0.455570
v -0.806575 -1.127583 0.334095
v -0.757585 1.000000 0.313803
v -0.856257 -1.127583 0.170321
v -0.804246 1.000000 0.159977
v -0.873033 -1.127583 -0.000000
v -0.820000 1.000000 -0.000000
v -0.856257 -1.127583 -0.170321
v -0.804246 1.000000 -0.159977
v -0.806575 -1.127583 -0.334095
v -0.757585 1.000000 -0.313803
v -0.725899 -1.127583 -0.485030
v -0.681809 1.000000 -0.455569
v -0.617329 -1.127583 -0.617329
v -0.579832 1.000000 -0.579832
v -0.485030 -1.127583 -0.725899
v -0.455570 1.000000 -0.681809
v -0.334095 -1.127583 -0.806575
v -0.313803 1.000000 -0.757585
v -0.170321 -1.127583 -0.856257
v -0.159977 1.000000 -0.804246
v 0.000000 -1.180000 -1.000000
v 0.195090 -1.180000 -0.980785
v 0.382683 -1.180000 -0.923880
v 0.555570 -1.180000 -0.831470
v 0.707107 -1.180000 -0.707107
v 0.831470 -1.180000 -0.555570
v 0.923880 -1.180000 -0.382683
v 0.980785 -1.180000 -0.195090
v 1.000000 -1.180000 0.000000
v 0.980785 -1.180000 0.195090
v 0.923880 -1.180000 0.382683
v 0.831470 -1.180000 0.555570
v 0.707107 -1.180000 0.707107
v 0.555570 -1.180000 0.831470
v 0.382683 -1.180000 0.923880
v 0.195090 -1.180000 0.980785
v -0.000000 -1.180000 1.000000
v -0.195090 -1.180000 0.980785
v -0.382683 -1.180000 0.923880
v -0.555570 -1.180000 0.831470
v -0.707107 -1.180000 0.707107
v -0.831469 -1.180000 0.555570
v -0.923880 -1.180000 0.382684
v -0.980785 -1.180000 0.195090
v -1.000000 -1.180000 -0.000000
v -0.980785 -1.180000 -0.195090
v -0.923879 -1.180000 -0.382684
v -0.831470 -1.180000 -0.555570
v -0.707107 -1.180000 -0.707107
v -0.555570 -1.180000 -0.831470
v -0.382683 -1.180000 -0.923880
v -0.195090 -1.180000 -0.980785
vt 1.000000 0.500000
vt 1.000000 1.000000
vt 0.968750 1.000000
vt 0.968750 0.500000
vt 0.937500 1.000000
vt 0.937500 0.500000
vt 0.906250 1.000000
vt 0.906250 0.500000
vt 0.875000 1.000000
vt 0.875000 0.500000
vt 0.843750 1.000000
vt 0.843750 0.500000
vt 0.812500 1.000000
vt 0.812500 0.500000
vt 0.781250 1.000000
vt 0.781250 0.500000
vt 0.750000 1.000000
vt 0.750000 0.500000
vt 0.718750 1.000000
vt 0.718750 0.500000
vt 0.687500 1.000000
vt 0.687500 0.500000
vt 0.656250 1.000000
vt 0.656250 0.500000
vt 0.625000 1.000000
vt 0.625000 0.500000
vt 0.593750 1.000000
vt 0.593750 0.500000
vt 0.562500 1.000000
vt 0.562500 0.500000
vt 0.531250 1.000000
vt 0.531250 0.500000
vt 0.500000 1.000000
vt 0.500000 0.500000
vt 0.468750 1.000000
vt 0.468750 0.500000
vt 0.437500 1.000000
vt 0.437500 0.500000
vt 0.406250 1.000000
vt 0.406250 0.500000
vt 0.375000 1.000000
vt 0.375000 0.500000
vt 0.343750 1.000000
vt 0.343750 0.500000
vt 0.312500 1.000000
vt 0.312500 0.500000
vt 0.281250 1.000000
vt 0.281250 0.500000
vt 0.250000 1.000000
vt 0.250000 0.500000
vt 0.218750 1.000000
vt 0.218750 0.500000
vt 0.187500 1.000000
vt 0.187500 0.500000
vt 0.156250 1.000000
vt 0.156250 0.500000
vt 0.125000 1.000000
vt 0.125000 0.500000
vt 0.093750 1.000000
vt 0.093750 0.500000
vt 0.062500 1.000000
vt 0.062500 0.500000
vt 0.031250 1.000000
vt 0.031250 0.500000
vt 0.000000 1.000000
vt 0.000000 0.500000
vt 0.796822 0.485388
vt 0.796822 0.485388
vt 0.750000 0.490000
vt 0.750000 0.490000
vt 0.841844 0.471731
vt 0.841844 0.471731
vt 0.883337 0.449553
vt 0.883337 0.449553
vt 0.919706 0.419706
vt 0.919706 0.419706
vt 0.949553 0.383337
vt 0.949553 0.383337
vt 0.971731 0.341844
vt 0.971731 0.341844
vt 0.985388 0.296822
vt 0.985388 0.296822
vt 0.990000 0.250000
vt 0.990000 0.250000
vt 0.985388 0.203178
vt 0.985388 0.203178
vt 0.971731 0.158156
vt 0.971731 0.158156
vt 0.949553 0.116663
vt 0.949553 0.116663
vt 0.919706 0.080294
vt 0.919706 0.080294
vt 0.883337 0.050447
vt 0.883337 0.050447
vt 0.841844 0.028269
vt 0.841844 0.028269
vt 0.796822 0.014612
vt 0.796822 0.014612
vt 0.750000 0.010000
vt 0.750000 0.010000
vt 0.703178 0.014612
vt 0.703178 0.014612
vt 0.658156 0.028269
vt 0.658156 0.028269
vt 0.616663 0.050447
vt 0.616663 0.050447
vt 0.580294 0.080294
vt 0.580294 0.080294
vt 0.550447 0.116663
vt 0.550447 0.116663
vt 0.528269 0.158156
vt 0.528269 0.158156
vt 0.514612 0.203178
vt 0.514612 0.203178
vt 0.510000 0.250000
vt 0.510000 0.250000
vt 0.514612 0.296822
vt 0.514612 0.296822
vt 0.528269 0.341844
vt 0.528269 0.341844
vt 0.550447 0.383337
vt 0.550447 0.383337
vt 0.580294 0.419706
vt 0.580294 0.419706
vt 0.616663 0.449553
vt 0.616663 0.449553
vt 0.658156 0.471731
vt 0.658156 0.471731
vt 0.703178 0.485388
vt 0.703178 0.485388
vt 1.000000 0.500000
vt 0.968750 0.500000
vt 0.968750 1.000000
vt 1.000000 1.000000
vt 0.937500 0.500000
vt 0.937500 1.000000
vt 0.906250 0.500000
vt 0.906250 1.000000
vt 0.875000 0.500000
vt 0.875000 1.000000
vt 0.843750 0.500000
vt 0.843750 1.000000
vt 0.812500 0.500000
vt 0.812500 1.000000
vt 0.781250 0.500000
vt 0.781250 1.000000
vt 0.750000 0.500000
vt 0.750000 1.000000
vt 0.718750 0.500000
vt 0.718750 1.000000
vt 0.687500 0.500000
vt 0.687500 1.000000
vt 0.656250 0.500000
vt 0.656250 1.000000
vt 0.625000 0.500000
vt 0.625000 1.000000
vt 0.593750 0.500000
vt 0.593750 1.000000
vt 0.562500 0.500000
vt 0.562500 1.000000
vt 0.531250 0.500000
vt 0.531250 1.000000
vt 0.500000 0.500000
vt 0.500000 1.000000
vt 0.468750 0.500000
vt 0.468750 1.000000
vt 0.437500 0.500000
vt 0.437500 1.000000
vt 0.406250 0.500000
vt 0.406250 1.000000
vt 0.375000 0.500000
vt 0.375000 1.000000
vt 0.343750 0.500000
vt 0.343750 1.000000
vt 0.312500 0.500000
vt 0.312500 1.000000
vt 0.281250 0.500000
vt 0.281250 1.000000
vt 0.250000 0.500000
vt 0.250000 1.000000
vt 0.218750 0.500000
vt 0.218750 1.000000
vt 0.187500 0.500000
vt 0.187500 1.000000
vt 0.156250 0.500000
vt 0.156250 1.000000
vt 0.125000 0.500000
vt 0.125000 1.000000
vt 0.093750 0.500000
vt 0.093750 1.000000
vt 0.062500 0.500000
vt 0.062500 1.000000
vt 0.031250 0.500000
vt 0.031250 1.000000
vt 0.000000 0.500000
vt 0.000000 1.000000
vt 0.796822 0.485388
vt 0.750000 0.490000
vt 0.750000 0.490000
vt 0.796822 0.485388
vt 0.841844 0.471731
vt 0.841844 0.471731
vt 0.883337 0.449553
vt 0.883337 0.449553
vt 0.919706 0.419706
vt 0.919706 0.419706
vt 0.949553 0.383337
vt 0.949553 0.383337
vt 0.971731 0.341844
vt 0.971731 0.341844
vt 0.985388 0.296822
vt 0.985388 0.296822
vt 0.990000 0.250000
vt 0.990000 0.250000
vt 0.985388 0.203178
vt 0.985388 0.203178
vt 0.971731 0.158156
vt 0.971731 0.158156
vt 0.949553 0.116663
vt 0.949553 0.116663
vt 0.919706 0.080294
vt 0.919706 0.080294
vt 0.883337 0.050447
vt 0.883337 0.050447
vt 0.841844 0.028269
vt 0.841844 0.028269
vt 0.796822 0.014612
vt 0.796822 0.014612
vt 0.750000 0.010000
vt 0.750000 0.010000
vt 0.703178 0.014612
vt 0.703178 0.014612
vt 0.658156 0.028269
vt 0.658156 0.028269
vt 0.616663 0.050447
vt 0.616663 0.050447
vt 0.580294 0.080294
vt 0.580294 0.080294
vt 0.550447 0.116663
vt 0.550447 0.116663
vt 0.528269 0.158156
vt 0.528269 0.158156
vt 0.514612 0.203178
vt 0.514612 0.203178
vt 0.510000 0.250000
vt 0.510000 0.250000
vt 0.514612 0.296822
vt 0.514612 0.296822
vt 0.528269 0.341844
vt 0.528269 0.341844
vt 0.550447 0.383337
vt 0.550447 0.383337
vt 0.580294 0.419706
vt 0.580294 0.419706
vt 0.616663 0.449553
vt 0.616663 0.449553
vt 0.658156 0.471731
vt 0.658156 0.471731
vt 0.703178 0.485388
vt 0.703178 0.485388
vn 0.0980 0.0000 -0.9952
vn 0.2903 0.0000 -0.9569
vn 0.4714 0.0000 -0.8819
vn 0.6344 0.0000 -0.7730
vn 0.7730 0.0000 -0.6344
vn 0.8819 0.0000 -0.4714
vn 0.9569 0.0000 -0.2903
vn 0.9952 0.0000 -0.0980
vn 0.9952 0.0000 0.0980
vn 0.9569 0.0000 0.2903
vn 0.8819 0.0000 0.4714
vn 0.7730 0.0000 0.6344
vn 0.6344 0.0000 0.7730
vn 0.4714 0.0000 0.8819
vn 0.2903 0.0000 0.9569
vn 0.0980 0.0000 0.9952
vn -0.0980 0.0000 0.9952
vn -0.2903 0.0000 0.9569
vn -0.4714 0.0000 0.8819
vn -0.6344 0.0000 0.7730
vn -0.7730 0.0000 0.6344
vn -0.8819 0.0000 0.4714
vn -0.9569 0.0000 0.2903
vn -0.9952 0.0000 0.0980
vn -0.9952 0.0000 -0.0980
vn -0.9569 0.0000 -0.2903
vn -0.8819 0.0000 -0.4714
vn -0.7730 0.0000 -0.6344
vn -0.6344 0.0000 -0.7730
vn -0.4714 0.0000 -0.8819
vn -0.2903 0.0000 -0.9569
vn -0.0980 0.0000 -0.9952
vn 0.0000 0.0000 1.0000
vn -0.0980 -0.0248 0.9949
vn -0.2902 -0.0248 0.9566
vn -0.4713 -0.0248 0.8817
vn -0.6342 -0.0248 0.7728
vn -0.7728 -0.0248 0.6342
vn -0.8817 -0.0248 0.4713
vn -0.9566 -0.0248 0.2902
vn -0.9949 -0.0248 0.0980
vn -0.9949 -0.0248 -0.0980
vn -0.9566 -0.0248 -0.2902
vn -0.8817 -0.0248 -0.4713
vn -0.7728 -0.0248 -0.6342
vn -0.6342 -0.0248 -0.7728
vn -0.4713 -0.0248 -0.8817
vn -0.2902 -0.0248 -0.9566
vn -0.0980 -0.0248 -0.9949
vn 0.0980 -0.0248 -0.9949
vn 0.2902 -0.0248 -0.9566
vn 0.4713 -0.0248 -0.8817
vn 0.6342 -0.0248 -0.7728
vn 0.7728 -0.0248 -0.6342
vn 0.8817 -0.0248 -0.4713
vn 0.9566 -0.0248 -0.2902
vn 0.9949 -0.0248 -0.0980
vn 0.9949 -0.0248 0.0980
vn 0.9566 -0.0248 0.2902
vn 0.8817 -0.0248 0.4713
vn 0.7728 -0.0248 0.6342
vn 0.6342 -0.0248 0.7728
vn 0.4713 -0.0248 0.8817
vn 0.2902 -0.0248 0.9566
vn 0.0980 -0.0248 0.9949
vn -0.0376 -0.9237 0.3813
vn -0.1112 -0.9237 0.3667
vn -0.1806 -0.9237 0.3379
vn -0.2431 -0.9237 0.2962
vn -0.2962 -0.9237 0.2431
vn -0.3379 -0.9237 0.1806
vn -0.3667 -0.9237 0.1112
vn -0.3813 -0.9237 0.0376
vn -0.3813 -0.9237 -0.0376
vn -0.3667 -0.9237 -0.1112
vn -0.3379 -0.9237 -0.1806
vn -0.2962 -0.9237 -0.2431
vn -0.2431 -0.9237 -0.2962
vn -0.1806 -0.9237 -0.3379
vn -0.1112 -0.9237 -0.3667
vn -0.0376 -0.9237 -0.3813
vn 0.0376 -0.9237 -0.3813
vn 0.1112 -0.9237 -0.3667
vn 0.1806 -0.9237 -0.3379
vn 0.2431 -0.9237 -0.2962
vn 0.2962 -0.9237 -0.2431
vn 0.3379 -0.9237 -0.1806
vn 0.3667 -0.9237 -0.1112
vn 0.3813 -0.9237 -0.0376
vn 0.3813 -0.9237 0.0376
vn 0.3667 -0.9237 0.1112
vn 0.3379 -0.9237 0.1806
vn 0.2962 -0.9237 0.2431
vn 0.2431 -0.9237 0.2962
vn 0.1806 -0.9237 0.3379
vn 0.1112 -0.9237 0.3667
vn 0.0376 -0.9237 0.3813
vn 0.0000 1.0000 0.0000
usemtl None
s off
f 1/1/1 2/2/1 4/3/1 3/4/1
f 3/4/2 4/3/2 6/5/2 5/6/2
f 5/6/3 6/5/3 8/7/3 7/8/3
f 7/8/4 8/7/4 10/9/4 9/10/4
f 9/10/5 10/9/5 12/11/5 11/12/5
f 11/12/6 12/11/6 14/13/6 13/14/6
f 13/14/7 14/13/7 16/15/7 15/16/7
f 15/16/8 16/15/8 18/17/8 17/18/8
f 17/18/9 18/17/9 20/19/9 19/20/9
f 19/20/10 20/19/10 22/21/10 21/22/10
f 21/22/11 22/21/11 24/23/11 23/24/11
f 23/24/12 24/23/12 26/25/12 25/26/12
f 25/26/13 26/25/13 28/27/13 27/28/13
f 27/28/14 28/27/14 30/29/14 29/30/14
f 29/30/15 30/29/15 32/31/15 31/32/15
f 31/32/16 32/31/16 34/33/16 33/34/16
f 33/34/17 34/33/17 36/35/17 35/36/17
f 35/36/18 36/35/18 38/37/18 37/38/18
f 37/38/19 38/37/19 40/39/19 39/40/19
f 39/40/20 40/39/20 42/41/20 41/42/20
f 41/42/21 42/41/21 44/43/21 43/44/21
f 43/44/22 44/43/22 46/45/22 45/46/22
f 45/46/23 46/45/23 48/47/23 47/48/23
f 47/48/24 48/47/24 50/49/24 49/50/24
f 49/50/25 50/49/25 52/51/25 51/52/25
f 51/52/26 52/51/26 54/53/26 53/54/26
f 53/54/27 54/53/27 56/55/27 55/56/27
f 55/56/28 56/55/28 58/57/28 57/58/28
f 57/58/29 58/57/29 60/59/29 59/60/29
f 59/60/30 60/59/30 62/61/30 61/62/30
f 61/62/31 62/61/31 64/63/31 63/64/31
f 63/64/32 64/63/32 2/65/32 1/66/32
f 3/67/33 66/68/33 65/69/33 1/70/33
f 5/71/33 67/72/33 66/68/33 3/67/33
f 7/73/33 68/74/33 67/72/33 5/71/33
f 9/75/33 69/76/33 68/74/33 7/73/33
f 11/77/33 70/78/33 69/76/33 9/75/33
f 13/79/33 71/80/33 70/78/33 11/77/33
f 15/81/33 72/82/33 71/80/33 13/79/33
f 17/83/33 73/84/33 72/82/33 15/81/33
f 19/85/33 74/86/33 73/84/33 17/83/33
f 21/87/33 75/88/33 74/86/33 19/85/33
f 23/89/33 76/90/33 75/88/33 21/87/33
f 25/91/33 77/92/33 76/90/33 23/89/33
f 27/93/33 78/94/33 77/92/33 25/91/33
f 29/95/33 79/96/33 78/94/33 27/93/33
f 31/97/33 80/98/33 79/96/33 29/95/33
f 33/99/33 81/100/33 80/98/33 31/97/33
f 35/101/33 82/102/33 81/100/33 33/99/33
f 37/103/33 83/104/33 82/102/33 35/101/33
f 39/105/33 84/106/33 83/104/33 37/103/33
f 41/107/33 85/108/33 84/106/33 39/105/33
f 43/109/33 86/110/33 85/108/33 41/107/33
f 45/111/33 87/112/33 86/110/33 43/109/33
f 47/113/33 88/114/33 87/112/33 45/111/33
f 49/115/33 89/116/33 88/114/33 47/113/33
f 51/117/33 90/118/33 89/116/33 49/115/33
f 53/119/33 91/120/33 90/118/33 51/117/33
f 55/121/33 92/122/33 91/120/33 53/119/33
f 57/123/33 93/124/33 92/122/33 55/121/33
f 59/125/33 94/126/33 93/124/33 57/123/33
f 61/127/33 95/128/33 94/126/33 59/125/33
f 63/129/33 96/130/33 95/128/33 61/127/33
f 1/70/33 65/69/33 96/130/33 63/129/33
f 97/131/34 99/132/34 100/133/34 98/134/34
f 99/132/35 101/135/35 102/136/35 100/133/35
f 101/135/36 103/137/36 104/138/36 102/136/36
f 103/137/37 105/139/37 106/140/37 104/138/37
f 105/139/38 107/141/38 108/142/38 106/140/38
f 107/141/39 109/143/39 110/144/39 108/142/39
f 109/143/40 111/145/40 112/146/40 110/144/40
f 111/145/41 113/147/41 114/148/41 112/146/41
f 113/147/42 115/149/42 116/150/42 114/148/42
f 115/149/43 117/151/43 118/152/43 116/150/43
f 117/151/44 119/153/44 120/154/44 118/152/44
f 119/153/45 121/155/45 122/156/45 120/154/45
f 121/155/46 123/157/46 124/158/46 122/156/46
f 123/157/47 125/159/47 126/160/47 124/158/47
f 125/159/48 127/161/48 128/162/48 126/160/48
f 127/161/49 129/163/49 130/164/49 128/162/49
f 129/163/50 131/165/50 132/166/50 130/164/50
f 131/165/51 133/167/51 134/168/51 132/166/51
f 133/167/52 135/169/52 136/170/52 134/168/52
f 135/169/53 137/171/53 138/172/53 136/170/53
f 137/171/54 139/173/54 140/174/54 138/172/54
f 139/173/55 141/175/55 142/176/55 140/174/55
f 141/175/56 143/177/56 144/178/56 142/176/56
f 143/177/57 145/179/57 146/180/57 144/178/57
f 145/179/58 147/181/58 148/182/58 146/180/58
f 147/181/59 149/183/59 150/184/59 148/182/59
f 149/183/60 151/185/60 152/186/60 150/184/60
f 151/185/61 153/187/61 154/188/61 152/186/61
f 153/187/62 155/189/62 156/190/62 154/188/62
f 155/189/63 157/191/63 158/192/63 156/190/63
f 157/191/64 159/193/64 160/194/64 158/192/64
f 159/193/65 97/195/65 98/196/65 160/194/65
f 99/197/66 97/198/66 161/199/66 162/200/66
f 101/201/67 99/197/67 162/200/67 163/202/67
f 103/203/68 101/201/68 163/202/68 164/204/68
f 105/205/69 103/203/69 164/204/69 165/206/69
f 107/207/70 105/205/70 165/206/70 166/208/70
f 109/209/71 107/207/71 166/208/71 167/210/71
f 111/211/72 109/209/72 167/210/72 168/212/72
f 113/213/73 111/211/73 168/212/73 169/214/73
f 115/215/74 113/213/74 169/214/74 170/216/74
f 117/217/75 115/215/75 170/216/75 171/218/75
f 119/219/76 117/217/76 171/218/76 172/220/76
f 121/221/77 119/219/77 172/220/77 173/222/77
f 123/223/78 121/221/78 173/222/78 174/224/78
f 125/225/79 123/223/79 174/224/79 175/226/79
f 127/227/80 125/225/80 175/226/80 176/228/80
f 129/229/81 127/227/81 176/228/81 177/230/81
f 131/231/82 129/229/82 177/230/82 178/232/82
f 133/233/83 131/231/83 178/232/83 179/234/83
f 135/235/84 133/233/84 179/234/84 180/236/84
f 137/237/85 135/235/85 180/236/85 181/238/85
f 139/239/86 137/237/86 181/238/86 182/240/86
f 141/241/87 139/239/87 182/240/87 183/242/87
f 143/243/88 141/241/88 183/242/88 184/244/88
f 145/245/89 143/243/89 184/244/89 185/246/89
f 147/247/90 145/245/90 185/246/90 186/248/90
f 149/249/91 147/247/91 186/248/91 187/250/91
f 151/251/92 149/249/92 187/250/92 188/252/92
f 153/253/93 151/251/93 188/252/93 189/254/93
f 155/255/94 153/253/94 189/254/94 190/256/94
f 157/257/95 155/255/95 190/256/95 191/258/95
f 159/259/96 157/257/96 191/258/96 192/260/96
f 97/198/97 159/259/97 192/260/97 161/199/97
f 4/3/98 2/2/98 98/134/98 100/133/98
f 6/5/98 4/3/98 100/133/98 102/136/98
f 8/7/98 6/5/98 102/136/98 104/138/98
f 10/9/98 8/7/98 104/138/98 106/140/98
f 12/11/98 10/9/98 106/140/98 108/142/98
f 14/13/98 12/11/98 108/142/98 110/144/98
f 16/15/98 14/13/98 110/144/98 112/146/98
f 18/17/98 16/15/98 112/146/98 114/148/98
f 20/19/98 18/17/98 114/148/98 116/150/98
f 22/21/98 20/19/98 116/150/98 118/152/98
f 24/23/98 22/21/98 118/152/98 120/154/98
f 26/25/98 24/23/98 120/154/98 122/156/98
f 28/27/98 26/25/98 122/156/98 124/158/98
f 30/29/98 28/27/98 124/158/98 126/160/98
f 32/31/98 30/29/98 126/160/98 128/162/98
f 34/33/98 32/31/98 128/162/98 130/164/98
f 36/35/98 34/33/98 130/164/98 132/166/98
f 38/37/98 36/35/98 132/166/98 134/168/98
f 40/39/98 38/37/98 134/168/98 136/170/98
f 42/41/98 40/39/98 136/170/98 138/172/98
f 44/43/98 42/41/98 138/172/98 140/174/98
f 46/45/98 44/43/98 140/174/98 142/176/98
f 48/47/98 46/45/98 142/176/98 144/178/98
f 50/49/98 48/47/98 144/178/98 146/180/98
f 52/51/98 50/49/98 146/180/98 148/182/98
f 54/53/98 52/51/98 148/182/98 150/184/98
f 56/55/98 54/53/98 150/184/98 152/186/98
f 58/57/98 56/55/98 152/186/98 154/188/98
f 60/59/98 58/57/98 154/188/98 156/190/98
f 62/61/98 60/59/98 156/190/98 158/192/98
f 64/63/98 62/61/98 158/192/98 160/194/98
f 2/65/98 64/63/98 160/194/98 98/196/98
f 65/69/1 66/68/1 162/200/1 161/199/1
f 66/68/2 67/72/2 163/202/2 162/200/2
f 67/72/3 68/74/3 164/204/3 163/202/3
f 68/74/4 69/76/4 165/206/4 164/204/4
f 69/76/5 70/78/5 166/208/5 165/206/5
f 70/78/6 71/80/6 167/210/6 166/208/6
f 71/80/7 72/82/7 168/212/7 167/210/7
f 72/82/8 73/84/8 169/214/8 168/212/8
f 73/84/9 74/86/9 170/216/9 169/214/9
f 74/86/10 75/88/10 171/218/10 170/216/10
f 75/88/11 76/90/11 172/220/11 171/218/11
f 76/90/12 77/92/12 173/222/12 172/220/12
f 77/92/13 78/94/13 174/224/13 173/222/13
f 78/94/14 79/96/14 175/226/14 174/224/14
f 79/96/15 80/98/15 176/228/15 175/226/15
f 80/98/16 81/100/16 177/230/16 176/228/16
f 81/100/17 82/102/17 178/232/17 177/230/17
f 82/102/18 83/104/18 179/234/18 178/232/18
f 83/104/19 84/106/19 180/236/19 179/234/19
f 84/106/20 85/108/20 181/238/20 180/236/20
f 85/108/21 86/110/21 182/240/21 181/238/21
f 86/110/22 87/112/22 183/242/22 182/240/22
f 87/112/23 88/114/23 184/244/23 183/242/23
f 88/114/24 89/116/24 185/246/24 184/244/24
f 89/116/25 90/118/25 186/248/25 185/246/25
f 90/118/26 91/120/26 187/250/26 186/248/26
f 91/120/27 92/122/27 188/252/27 187/250/27
f 92/122/28 93/124/28 189/254/28 188/252/28
f 93/124/29 94/126/29 190/256/29 189/254/29
f 94/126/30 95/128/30 191/258/30 190/256/30
f 95/128/31 96/130/31 192/260/31 191/258/31
f 96/130/32 65/69/32 161/199/32 192/260/32
